:SAMPLES-PER-SECOND 30
:FULLY-SPECIFIED
:DEGREES
245
root  -55.3334 34.9715 29.8383 -172.284 29.6373 177.589
RightUpLeg  -6.93608 -20.2496 -3.43909
RightLeg  10.747 -7.99219 -0.984543
RightFoot  -0.00406798 -0.00922671 0.193931
RightToes  -21.6519 -0.0929593 -0.190978
Spine  -1.81398 3.58347 -2.16393
Spine1  -3.66236 7.01046 -3.59943
HEad  -50.1891 -14.3244 2.28349
LeftShoulder1  -1.94126e-019 -3.10601e-018 -2.51263e-017
LeftArm  -10.5443 24.5264 -76.9929
LeftForeArm  31.2997 -14.3612 -2.41376
LeftHand  -0.309136 -1.06472 5.69458
RightShoulder  -4.96962e-017 0 -2.36833e-017
RightArm  2.72527 17.4769 90.484
RightForeArm  35.4799 39.2216 6.94616
RightHand  -0.303154 -1.38691 -8.67108
LeftUpLeg  -8.95087 -13.8818 -0.816479
LeftLeg  1.43613 7.20031 -0.281812
LeftFoot  9.54853 -0.10816 1.34944
LeftToes  -18.3559 1.48321e-006 1.01846e-007
246
root  -55.361 34.9758 29.783 -172.345 29.6785 177.525
RightUpLeg  -6.61098 -20.5495 -3.61887
RightLeg  10.2778 -7.66714 -0.881234
RightFoot  0.168329 -0.00813539 0.168776
RightToes  -21.6118 -0.0929689 -0.191684
Spine  -1.83203 3.59275 -2.22146
Spine1  -3.70529 7.03215 -3.71969
HEad  -50.1403 -14.6823 2.15575
LeftShoulder1  -1.94126e-019 -3.10601e-018 -2.51263e-017
LeftArm  -10.331 24.3493 -77.0177
LeftForeArm  31.216 -14.3734 -2.4235
LeftHand  -0.312135 -1.00793 5.7949
RightShoulder  -4.96962e-017 0 -2.36833e-017
RightArm  3.7462 16.3684 90.6612
RightForeArm  35.7911 40.2284 7.21859
RightHand  -0.265079 -2.39318 -9.95692
LeftUpLeg  -8.88732 -14.0559 -0.965033
LeftLeg  1.49408 7.39563 -0.281947
LeftFoot  9.48953 -0.109671 1.37536
LeftToes  -18.099 1.48321e-006 1.01846e-007
247
root  -55.3904 34.9705 29.748 -172.457 29.8086 177.426
RightUpLeg  -6.76967 -20.0141 -3.79579
RightLeg  10.7211 -8.0615 -0.98933
RightFoot  0.0607523 -0.00992211 0.184607
RightToes  -21.9719 -0.0929725 -0.192302
Spine  -1.80945 3.57012 -2.26775
Spine1  -3.65965 6.9823 -3.81023
HEad  -49.7996 -14.7029 1.75853
LeftShoulder1  -1.94126e-019 -3.10601e-018 -2.51263e-017
LeftArm  -10.4255 24.2018 -77.0681
LeftForeArm  31.2012 -14.8621 -2.49978
LeftHand  -0.316471 -1.02378 5.86074
RightShoulder  -4.96962e-017 0 -2.36833e-017
RightArm  4.79682 15.1127 90.5595
RightForeArm  38.0156 41.8944 7.58448
RightHand  -0.254774 -3.03612 -12.0873
LeftUpLeg  -8.77291 -14.1006 -1.14203
LeftLeg  1.47095 7.56377 -0.291361
LeftFoot  9.44264 -0.110818 1.3968
LeftToes  -17.9507 1.48321e-006 1.01846e-007
248
root  -55.4261 34.9709 29.7266 -172.514 29.7577 177.435
RightUpLeg  -6.73359 -19.9132 -3.87316
RightLeg  10.8049 -8.19398 -1.0176
RightFoot  0.101006 -0.0101528 0.178072
RightToes  -22.0139 -0.0929676 -0.192814
Spine  -1.78531 3.44977 -2.30526
Spine1  -3.60544 6.73543 -3.87866
HEad  -49.4064 -14.9831 1.29337
LeftShoulder1  -1.94126e-019 -3.10601e-018 -2.51263e-017
LeftArm  -10.3729 24.1922 -77.0293
LeftForeArm  31.0618 -15.8419 -2.64472
LeftHand  -0.319458 -1.17374 5.79236
RightShoulder  -4.96962e-017 0 -2.36833e-017
RightArm  5.80912 13.4628 89.9212
RightForeArm  40.2332 44.5899 8.31227
RightHand  -0.255147 -3.11511 -12.5211
LeftUpLeg  -8.73739 -14.0917 -1.21608
LeftLeg  1.5219 7.50045 -0.282284
LeftFoot  9.37751 -0.109222 1.37677
LeftToes  -17.8098 1.48321e-006 1.01846e-007
249
root  -55.4685 34.9682 29.719 -172.622 29.7461 177.399
RightUpLeg  -6.78185 -19.8905 -3.99651
RightLeg  11.0551 -8.20242 -1.05493
RightFoot  0.0505461 -0.011382 0.18568
RightToes  -22.0262 -0.0929676 -0.193275
Spine  -1.67469 3.32502 -2.34536
Spine1  -3.38242 6.49024 -3.94769
HEad  -50.1439 -15.7222 0.92065
LeftShoulder1  -1.94126e-019 -3.10601e-018 -2.51263e-017
LeftArm  -10.2388 24.0761 -77.0421
LeftForeArm  30.7851 -17.0054 -2.79541
LeftHand  -0.316751 -1.19691 5.72606
RightShoulder  -4.96962e-017 0 -2.36833e-017
RightArm  5.75771 11.543 89.1594
RightForeArm  43.0802 48.3808 9.48242
RightHand  -0.275734 -2.98901 -12.8877
LeftUpLeg  -8.67553 -14.1102 -1.32726
LeftLeg  1.53843 7.51093 -0.280515
LeftFoot  9.36229 -0.108842 1.37681
LeftToes  -17.7127 1.48321e-006 1.01846e-007
250
root  -55.5156 34.9629 29.7251 -172.652 29.676 177.394
RightUpLeg  -6.93491 -20.145 -4.06472
RightLeg  11.3438 -8.01445 -1.07191
RightFoot  -0.0119513 -0.0127869 0.195676
RightToes  -22.08 -0.092987 -0.193751
Spine  -1.48556 3.23315 -2.3817
Spine1  -3.01072 6.32545 -4.00904
HEad  -53.0131 -17.1094 0.682451
LeftShoulder1  -1.94126e-019 -3.10601e-018 -2.51263e-017
LeftArm  -9.8323 23.8129 -77.0927
LeftForeArm  30.3319 -18.4172 -2.97111
LeftHand  -0.309318 -1.10068 5.66933
RightShoulder  -4.96962e-017 0 -2.36833e-017
RightArm  4.80081 9.12846 88.1123
RightForeArm  44.9661 53.1987 11.3992
RightHand  -0.258272 -3.23185 -13.3644
LeftUpLeg  -8.70085 -14.1709 -1.38402
LeftLeg  1.53489 7.51038 -0.280958
LeftFoot  9.36922 -0.108348 1.37625
LeftToes  -17.7903 1.48321e-006 1.01846e-007
251
root  -55.5657 34.9568 29.7399 -172.482 29.3575 177.448
RightUpLeg  -7.16838 -20.6017 -4.01316
RightLeg  11.4937 -7.90106 -1.07784
RightFoot  0.0367804 -0.0131636 0.190865
RightToes  -22.4657 -0.0930253 -0.194241
Spine  -1.3494 3.12515 -2.33167
Spine1  -2.74461 6.13394 -3.90279
HEad  -57.6553 -18.9388 0.36178
LeftShoulder1  -1.94126e-019 -3.10601e-018 -2.51263e-017
LeftArm  -8.96659 23.7047 -77.2855
LeftForeArm  29.4765 -19.7227 -3.12618
LeftHand  -0.306417 -0.978742 5.71429
RightShoulder  -4.96962e-017 0 -2.36833e-017
RightArm  2.9088 5.91211 86.809
RightForeArm  48.9226 58.6373 14.0535
RightHand  -0.246655 -3.54791 -14.9058
LeftUpLeg  -8.90314 -14.3753 -1.3347
LeftLeg  1.46304 7.42797 -0.287187
LeftFoot  9.42576 -0.107811 1.37615
LeftToes  -17.842 1.48321e-006 1.01846e-007
252
root  -55.6212 34.9607 29.7566 -172.016 28.865 177.58
RightUpLeg  -7.46725 -21.2696 -3.80153
RightLeg  11.2798 -7.72397 -1.02456
RightFoot  0.241702 -0.011819 0.161351
RightToes  -22.6532 -0.093082 -0.194741
Spine  -1.34285 2.92502 -2.22137
Spine1  -2.72039 5.73654 -3.67467
HEad  -62.2544 -19.9942 0.316476
LeftShoulder1  -1.94126e-019 -3.10601e-018 -2.51263e-017
LeftArm  -7.82276 23.8393 -77.4652
LeftForeArm  28.6504 -20.7957 -3.27122
LeftHand  -0.298981 -1.05503 5.51865
RightShoulder  -4.96962e-017 0 -2.36833e-017
RightArm  0.0703142 2.9709 85.7415
RightForeArm  52.342 62.4371 16.4674
RightHand  -0.353417 -2.95522 -16.4715
LeftUpLeg  -9.25864 -14.6482 -1.14115
LeftLeg  1.11327 7.25249 -0.324627
LeftFoot  9.6683 -0.107329 1.37806
LeftToes  -18.047 1.48321e-006 1.01846e-007
